<svg width="64" height="64" viewBox="0 0 40 45" fill="none" xmlns="http://www.w3.org/2000/svg">
    <!-- Base de la lamparita -->
    <path d="M16 34H24" stroke="#0f172a" stroke-width="2" stroke-linecap="round"/>
    <path d="M16 38H24" stroke="#0f172a" stroke-width="2" stroke-linecap="round"/>
    <path d="M18 42H22" stroke="#0f172a" stroke-width="3" stroke-linecap="round"/>
    <!-- Bulbo -->
    <path d="M20 0C11.1634 0 4 7.16344 4 16C4 21.6 7 26.5 11.5 29.2C12.5 29.8 13 31 13 32V34H27V32C27 31 27.5 29.8 28.5 29.2C33 26.5 36 21.6 36 16C36 7.16344 28.8366 0 20 0Z" stroke="#0f172a" stroke-width="2.5" stroke-linejoin="round"/>
    <!-- Filamento y Rayos -->
    <path d="M20 8V18" stroke="#3b82f6" stroke-width="2.5" stroke-linecap="round"/>
    <circle cx="20" cy="21" r="3.5" fill="#3b82f6"/>
    <path d="M2 16H0" stroke="#3b82f6" stroke-width="2" stroke-linecap="round"/>
    <path d="M40 16H38" stroke="#3b82f6" stroke-width="2" stroke-linecap="round"/>
    <path d="M7 5L5.5 3.5" stroke="#3b82f6" stroke-width="2" stroke-linecap="round"/>
    <path d="M33 5L34.5 3.5" stroke="#3b82f6" stroke-width="2" stroke-linecap="round"/>
</svg>
